<svg version="1.2" xmlns="http://www.w3.org/2000/svg" viewBox="0 0 994 285" width="994" height="285"><style></style><path fill="#fff" fill-rule="evenodd" d="m39.7 216.5c2.4-3.9 4-8.1 4.9-12.3 1-4.2 1.4-8.3 1.5-12.4 0.2-8.2-0.3-16.2-0.3-24.3q0-0.4 0-0.8l-6.6 1.8c-1.7 0.4-3.4 0.9-5 1.6-1.7 0.7-3.3 1.7-4.7 3-2.9 2.5-5 6-5.8 9.5-0.4 2.1-0.5 4.2-0.1 6.1l-5.2 1.4c-3.9-5.9-5.2-14-3.5-22.3 1-4.4 2.8-8.9 5.4-13 2.6-4.1 6.1-7.7 9.9-10.5 4.9-3.7 10.2-6.1 15.6-8.3v-6.9c0-5.7 0.3-11.6 2.5-17.4 2.2-5.7 6-11.1 10.3-15.8 4.7-5 10-9.5 14.8-14.4 4.9-4.9 9.2-10.3 13.2-15.8l7-9.7 7.9-1.8q0 16.8 0 33.6 0 16.8 0 33.6l37.7-8.1c0 0 0-12.5 0-24.9 0-12.5 0-25 0-25l-7.4-5.5-9.4 9.2-0.2-7.6 31.9-32.6 20.9 13.2 8.2-8 4.8 5.1-10.4 10.4c0 0 0 9.3 0 23.4 0 7.1 0 15.3 0 24.1 0 8.7 0 18.1 0 27.5 0 9.4 0 18.8 0 27.6 0 8.8 0 17 0 24 0 14.1 0 23.5 0 23.5l7.9 7.4 8.6-8.8 4 3.3c0 0-9.2 9.3-18.3 18.7-9.2 9.4-18.3 18.9-18.3 18.9l-26.7-19.1-6.7 6.5-3.2-3.4 14.2-14c0 0 0-15.4 0-30.7 0-15.4 0-30.8 0-30.8l-37.6 8.1q0 17.2 0 34.4 0 17.1 0 34.3 2.2 0.6 4.3 1.3l-27.3 32.8c-8.4-3.9-18.5-4.9-28.7-2.8-7.7 1.6-15.4 5.1-22.6 10-7.1 4.8-13.6 11.1-18.8 18.2l-8.3 2.4c4.3-10.2 10.4-20 17.7-28.7 7.4-8.7 16-16.3 25.3-22 8.1-5 16.6-8.6 25.2-10.8 8.6-2.1 17.2-2.7 25.3-1.8q0-19.6 0-39.2 0-19.6 0-39.2 0-19.6 0-39.2 0-19.6 0-39.2c-1.7 2.3-3.3 4.6-4.8 7.1-2.2 3.8-4 7.8-5.2 11.9-2.4 8.1-2.5 16.3-2.5 24.2v21.7 40.1c0 4-0.1 8.1-0.6 12.2-0.6 4.1-1.7 8.3-3.4 12.3-3.4 8.1-9.2 15.5-15.8 21.5-9.1 8.2-19.7 14.2-30.4 18v-6.8c3.5-2.7 6.5-6.2 8.8-10zm-37.6-115.7c1.6-5.7 3.9-11.3 6.8-16.7 3.5-6.7 8-13.1 13.6-18.3 4-3.7 8.5-6.8 13.2-9 4.7-2.2 9.5-3.6 14.3-4.5 5.2-1 10.4-1.4 15.7-2.2 5.2-0.7 10.5-1.8 15.7-3.9 5.1-2.1 10-5.1 14.4-8.8l5.2 1.4q-1.6 2.2-3.2 4.3c-5 6.7-9.9 13.5-15.6 19.6-5.7 6.2-12.4 11.5-19.7 14.8-5.1 2.2-10.4 3.5-15.5 4.3-5.2 0.8-10.3 1.1-15.5 2.2-2.5 0.5-4.9 1.2-7.4 2.3-3.4 1.4-6.7 3.5-9.6 6.2-3 2.6-5.4 5.9-7.2 9.4zm333.7 86.1c0 0-9.7 7.5-19.4 15.1-9.7 7.6-19.4 15.3-19.4 15.3l-21.3-18.7-29.3 25.1c-11.4 0.2-22.3-3.7-29.6-11.4-5.1-5.4-8.2-12.9-7.7-21.1 0.3-5.2 2-10.6 4.7-15.5 2.7-4.9 6.3-9.4 10.2-13.4 5.5-5.7 11.7-10.7 18.2-15q-2.1-0.5-4.1-1.2c-6.3-2.1-12.3-5.3-16.1-10.6-2-2.8-3.3-6.2-3.6-9.8-0.2-3.4 0.5-7 1.9-10.3 1.5-3.3 3.7-6.4 6.2-9 2.8-2.8 6-5.1 9.2-7.3l30.7-20.1c0 0 10.2 5.3 20.5 10.6 10.3 5.4 20.5 10.9 20.5 10.9l11.3-10.2 4.9 5.5-14.5 13.2c0 0 0 17.5 0 34.9 0 17.5 0 34.9 0 34.9l13.3 12 12-9.1zm-61.4-67.8l-34.6-16.6c-2.1 1.2-4 2.5-5.8 4.2-2.2 2-4.1 4.3-5.5 6.9-1.3 2.6-2.1 5.4-2 8.2 0.1 3.8 1.7 7.2 4.1 9.8 3.5 3.7 8.4 6 13.4 7.6 4.9 1.7 10.2 2.8 15.5 3.7q7.4 1.3 14.9 2.2 0-13 0-26zm-16.4 31.2c-3.6-0.5-7.3-1.1-10.8-1.9-2.2 3.9-3.7 8.1-4.4 12.3-1.3 8.6 0.5 17 4.5 23.9 1.8 3.3 4.2 6.3 7.2 8.5 3.1 2.2 6.7 3.7 10.7 3.9 3 0.2 6.3-0.4 9.2-1.7q0-10.6 0-21.1 0-10.6 0-21.1c-5.4-1-10.9-1.9-16.4-2.8zm135.9 50.2c-0.2 6-0.5 12.1-1.9 18-1.4 5.8-3.9 11.5-7.4 16.7-5.1 7.7-12.2 14.1-20.4 18.6-8.1 4.6-17.2 7.2-26.2 7.6v-7.7c3-0.4 6-1.5 8.7-3.2 4-2.5 7.3-6.4 9.3-10.7 2.1-4.2 3.1-8.9 3.5-13.5 0.9-9.2 0.2-18.4 0.2-27.6v-21.8c0 0 0-18.3 0-36.5 0-18.3 0-36.5 0-36.5l-9.4-11.2-10.7 7.5-4-4.9c0 0 9.4-7.2 18.7-14.2 9.4-7.1 18.8-14.1 18.8-14.1l18.4 20.5 9.7-8.3 5 5.7-11.7 10c0 0 0 19.9 0 39.8 0 20 0 39.9 0 39.9zm-16.4-194.4l23.8 25.4-26.7 24.9-23.8-25.1zm115.7 172.1c0 0-10 7.1-20.1 14.1-10 7.2-20.1 14.3-20.1 14.3l-26.8-23-9.4 7-4-5.1 17.4-12.7c0 0 0-18.2 0-36.5 0-18.2 0-36.5 0-36.5l-9.4-11.6-10.7 7.1-4-5.1c0 0 9.4-6.7 18.7-13.4 9.4-6.7 18.8-13.3 18.8-13.3l21.5 24.7c0 0 0 5.2 0 13.1 0 7.8 0 18.3 0 28.7 0 10.5 0 21 0 28.8 0 7.8 0 13.1 0 13.1l9.4 9.1 12-8.1zm-45.2-175.4l23.8 26.4-26.7 23.8-23.9-26.1zm152.7 93.3c-2.1 4.5-4.8 8.9-8.1 12.7-2.5 3-5.4 5.7-8.4 8.2l24 18.9c0 0 0 10.5 0 21 0 10.4 0 20.9 0 20.9 0 0-13.8 7.5-27.6 15.1-13.8 7.7-27.6 15.5-27.6 15.5-2.8-5.1-7.4-9.3-12.8-11.7-2.7-1.1-5.6-1.8-8.5-1.7-2.9 0-5.8 0.8-8.2 2.4-1.7 1.2-3.1 2.8-3.8 4.7-0.7 1.9-0.8 4.1-0.1 6 0.7 1.7 1.9 3.1 3.5 4.1l-2.7 7.2c-6.8-2.7-12.3-8.1-15.2-14.7-2.8-6.6-2.9-14.2-0.8-21 3.2-10 10.6-18.1 18.2-25.5q3.4-3.2 6.9-6.4l-21.2-16.8v-38.7c0 0 14.5-8.2 28.9-16.3 14.5-7.9 28.9-15.7 28.9-15.7 2.9 4.4 6.9 8.1 11.6 10.5 2.8 1.4 5.9 2.4 9.1 2.5 3.2 0.1 6.3-0.7 8.8-2.5 2.7-1.9 4.5-4.9 4.9-8.3h0.1q0 0 0 0l7.9 0.5c-1 10.1-3.5 20-7.8 29.1zm-54.1 51.4c-6.3 5.2-12.5 10.6-18.4 16.2-2.8 2.7-5.6 5.4-8.1 8.3 4.8-3.7 10.7-5.8 16.7-6.1 6.2-0.4 12.4 1 18 3.9 7.6 3.9 13.8 10.6 17.4 18.4v-36.1l-15.5-12.8zm29.9-34.6c3.5-2.8 6.9-5.7 9.8-9.1q1.4-1.6 2.6-3.3c-3.1 1.3-6.4 2.1-9.8 2.4-5.9 0.5-12-0.6-17.4-3.1-7.8-3.7-14.2-10.4-17.4-18.3v36.1l11.6 12zm109.6 77.8l8.7-5.1 5 6.8c0 0-8.7 5-17.4 10.1-8.7 5.1-17.3 10.2-17.3 10.2l-28.7-26.6-10.7 5.8-4.8-6.7 18.7-10.5c0 0 0-7.9 0-19.7 0-6 0-12.9 0-20.2 0-7.4 0-15.3 0-23.2 0-7.9 0-15.8 0-23.2 0-7.4 0-14.3 0-20.2 0-11.8 0-19.7 0-19.7 0-1.4 0-2.8-0.3-4.1-0.3-1.4-0.8-2.8-1.6-3.9-1.3-1.9-3.1-3.3-5-4.5-2-1.3-4.2-2.3-6.4-3.1v-4c0 0 11.3-7.1 22.7-14.1 11.4-7 22.7-13.9 22.7-13.9l5.4 0.5c0 0 0 6.5 0 16.1 0 9.6 0 22.5 0 35.3 0 12.8 0 25.7 0 35.3 0 9.6 0 16.1 0 16.1 0 0 8.7-7.2 17.3-14.4 8.7-7.1 17.4-14.1 17.4-14.1l29.4 28.2 11-7.3 4.9 6.8-12 7.9c0 0 0 18.1 0 36.1 0 18.1 0 36.2 0 36.2 0 7.5-0.1 15-1.4 22.3-1.3 7.2-3.9 14.1-7.8 19.9-5.7 8.4-14.3 14.6-24.2 17.9-10.3 3.4-22 3.7-33.3 0.9v-6.7c6.1-0.7 11.8-3.1 16.3-6.9 5-4.3 8.4-10.1 10.6-16.4 3.6-10.3 3.8-21.8 3.8-33 0 0 0-16.6 0-33.2 0-16.6 0-33.2 0-33.2l-16.5-15.6-15.5 12.8c0 0 0 17.1 0 34.2 0 17 0 34.1 0 34.1zm156.9 21.3c0 0-9.9 5-19.9 10.1-9.9 5.2-19.8 10.4-19.8 10.4l-26.6-28.3-9.3 5.2-4-5.9 17.3-9.3c0 0 0-18.2 0-36.5 0-18.2 0-36.5 0-36.5l-9.3-13.4-10.6 5-4-5.9c0 0 9.3-4.9 18.6-9.8 9.3-4.8 18.6-9.6 18.6-9.6l21.2 29c0 0 0 5.2 0 13 0 7.9 0 18.3 0 28.8 0 10.4 0 20.9 0 28.7 0 7.9 0 13.1 0 13.1l9.3 11 11.9-5.7zm-44.7-184.3l23.5 31-26.4 18.6-23.6-30.7zm195.5 223.4c0 0-10.1 4.1-20.2 8.3-10.1 4.2-20.2 8.5-20.2 8.5l-27.6-32.3 9.2-7c0 0 0-17 0-34.1 0-17.1 0-34.1 0-34.1l-19.7-22.1-11.8 6.7c0 0 0 19 0 38 0 19 0 38 0 38l11.8 13.4-26.3 17.8-31.6-32 10.6-7.1c0 0 0-18.4 0-36.8 0-18.4 0-36.8 0-36.8l-10.6-14.1-10.6 4.5-3.9-6.1c0 0 9.5-4.7 19.1-9.4 9.6-4.6 19.1-9.2 19.1-9.2l21.2 28.6 30.1-16.6 30.9 35 11.5-6.3 4.8 7.3-13.2 7.3c0 0 0 18.1 0 36.2 0 18.1 0 36.2 0 36.2l11.8 13.8 10.4-5z"/></svg>